<svg width="128" height="128" viewBox="0 0 128 128" fill="none" xmlns="http://www.w3.org/2000/svg">
<g filter="url(#filter0_ii_1017_22)">
<rect width="128" height="128" rx="24" fill="url(#paint0_linear_1017_22)"/>
</g>
<rect x="19.0769" width="1.23077" height="128" fill="#F0F0F0" fill-opacity="0.3"/>
<rect x="41.2308" width="1.23077" height="128" fill="#F0F0F0" fill-opacity="0.1"/>
<rect x="63.3846" width="1.23077" height="128" fill="#F0F0F0" fill-opacity="0.3"/>
<rect x="85.5385" width="1.23077" height="128" fill="#F0F0F0" fill-opacity="0.1"/>
<rect x="107.692" width="1.23077" height="128" fill="#F0F0F0" fill-opacity="0.3"/>
<rect y="108.923" width="1.23077" height="128" transform="rotate(-90 0 108.923)" fill="#F0F0F0" fill-opacity="0.3"/>
<rect y="86.7692" width="1.23077" height="128" transform="rotate(-90 0 86.7692)" fill="#F0F0F0" fill-opacity="0.1"/>
<rect y="64.6154" width="1.23077" height="128" transform="rotate(-90 0 64.6154)" fill="#F0F0F0" fill-opacity="0.3"/>
<rect y="42.4615" width="1.23077" height="128" transform="rotate(-90 0 42.4615)" fill="#F0F0F0" fill-opacity="0.1"/>
<rect y="20.3077" width="1.23077" height="128" transform="rotate(-90 0 20.3077)" fill="#F0F0F0" fill-opacity="0.3"/>
<rect x="19.5769" y="20.1923" width="88.8462" height="88.8462" rx="44.4231" stroke="#F0F0F0" stroke-opacity="0.1"/>
<rect x="41.7308" y="42.3462" width="44.5385" height="44.5385" rx="22.2692" stroke="#F0F0F0" stroke-opacity="0.1"/>
<g opacity="0.8" clip-path="url(#clip0_1017_22)">
<path d="M32.565 18.7846C32.4795 18.8756 32.3754 18.9521 32.2549 19.0076C32.1479 19.0569 32.0452 19.1169 31.9484 19.1873C31.8516 19.2576 31.7628 19.3368 31.6828 19.4233C31.5928 19.5207 31.4879 19.5961 31.3748 19.6493C31.3787 19.7742 31.3591 19.9019 31.3132 20.0263C31.2724 20.1368 31.2422 20.2518 31.2235 20.37L32.565 18.7846ZM32.565 18.7846C32.6826 18.8269 32.8101 18.8477 32.9426 18.8425C33.0603 18.8378 33.1791 18.8446 33.2972 18.8633C33.2973 18.8633 33.2973 18.8634 33.2973 18.8634L36.9085 19.4353C37.4539 19.5217 37.9662 19.1495 38.0526 18.6041L43.2997 19.4351C43.2133 19.9806 43.5854 20.4928 44.1309 20.5792L51.3534 21.7232C51.8989 21.8096 52.4111 21.4374 52.4975 20.8919L57.7446 21.723C57.6582 22.2685 58.0304 22.7807 58.5759 22.8671L65.7983 24.011C66.3438 24.0974 66.8561 23.7252 66.9425 23.1798L72.1896 24.0108C72.1032 24.5563 72.4753 25.0685 73.0208 25.1549L80.2433 26.2989C80.7888 26.3853 81.301 26.0131 81.3874 25.4676L86.6345 26.2987C86.5481 26.8442 86.9203 27.3564 87.4658 27.4428L94.6882 28.5867C95.2337 28.6731 95.746 28.301 95.8323 27.7555L101.079 28.5865C100.993 29.132 101.365 29.6443 101.911 29.7307L105.522 30.3026C105.64 30.3213 105.755 30.3515 105.866 30.3923C105.99 30.4382 106.118 30.4578 106.243 30.454C106.296 30.567 106.371 30.6719 106.469 30.7619C106.555 30.8419 106.634 30.9307 106.705 31.0275C106.775 31.1243 106.835 31.227 106.884 31.334C106.94 31.4545 107.016 31.5586 107.107 31.6442C107.065 31.7617 107.044 31.8892 107.049 32.0217C107.054 32.1395 107.047 32.2582 107.029 32.3763L106.457 35.9876C106.37 36.5331 106.742 37.0453 107.288 37.1317L106.457 42.3788C105.911 42.2924 105.399 42.6646 105.313 43.21L104.169 50.4325C104.082 50.978 104.455 51.4902 105 51.5766L104.169 56.8237C103.623 56.7373 103.111 57.1095 103.025 57.655L101.881 64.8775C101.795 65.4229 102.167 65.9352 102.712 66.0216L101.881 71.2687C101.336 71.1823 100.823 71.5544 100.737 72.0999L99.5931 79.3224C99.5067 79.8679 99.8788 80.3801 100.424 80.4665L99.5932 85.7136C99.0478 85.6272 98.5355 85.9994 98.4491 86.5449L97.3052 93.7673C97.2188 94.3128 97.591 94.8251 98.1365 94.9115L97.3054 100.159C96.7599 100.072 96.2477 100.444 96.1613 100.99L95.5893 104.601C95.5706 104.719 95.5404 104.834 95.4996 104.945C95.4537 105.069 95.4341 105.197 95.438 105.322C95.3249 105.375 95.22 105.45 95.13 105.548C95.05 105.634 94.9612 105.713 94.8644 105.784C94.7676 105.854 94.6649 105.914 94.5579 105.963C94.4375 106.019 94.3333 106.095 94.2478 106.186C94.1302 106.144 94.0027 106.123 93.8702 106.129C93.7524 106.133 93.6337 106.126 93.5156 106.108L89.9044 105.536C89.3589 105.449 88.8466 105.822 88.7602 106.367L83.5131 105.536C83.5995 104.99 83.2274 104.478 82.6819 104.392L75.4594 103.248C74.9139 103.161 74.4017 103.534 74.3153 104.079L69.0682 103.248C69.1546 102.703 68.7824 102.19 68.2369 102.104L61.0145 100.96C60.469 100.874 59.9567 101.246 59.8703 101.791L54.6232 100.96C54.7096 100.415 54.3375 99.9025 53.792 99.8161L46.5695 98.6722C46.024 98.5858 45.5118 98.9579 45.4254 99.5034L40.1783 98.6724C40.2647 98.1269 39.8925 97.6146 39.3471 97.5282L32.1246 96.3843C31.5791 96.2979 31.0669 96.6701 30.9805 97.2156L25.7334 96.3845C25.8198 95.839 25.4476 95.3268 24.9021 95.2404L21.291 94.6684C21.1728 94.6497 21.0577 94.6195 20.9472 94.5787C20.8228 94.5328 20.6951 94.5132 20.5702 94.5171C20.517 94.4041 20.4416 94.2992 20.3442 94.2091C20.2576 94.1292 20.1785 94.0403 20.1082 93.9435C20.0378 93.8467 19.9778 93.744 19.9285 93.637C19.873 93.5166 19.7965 93.4124 19.7055 93.3269C19.7477 93.2093 19.7686 93.0818 19.7633 92.9493C19.7587 92.8316 19.7655 92.7128 19.7842 92.5947L20.3562 88.9835C20.4426 88.438 20.0704 87.9257 19.5249 87.8393L20.356 82.5923C20.9015 82.6786 21.4137 82.3065 21.5001 81.761L22.644 74.5385C22.7304 73.993 22.3583 73.4808 21.8128 73.3944L22.6438 68.1473C23.1893 68.2337 23.7016 67.8615 23.788 67.3161L24.9319 60.0936C25.0183 59.5481 24.6461 59.0359 24.1006 58.9495L24.9317 53.7024C25.4772 53.7888 25.9894 53.4166 26.0758 52.8711L27.2198 45.6486C27.3061 45.1032 26.934 44.5909 26.3885 44.5045L27.2196 39.2574C27.765 39.3438 28.2773 38.9717 28.3637 38.4262L29.5076 31.2037C29.594 30.6582 29.2218 30.146 28.6764 30.0596L29.5074 24.8125M32.565 18.7846L29.5074 24.8125M29.5074 24.8125C30.0529 24.8989 30.5651 24.5267 30.6515 23.9812M29.5074 24.8125L30.6515 23.9812M30.6515 23.9812L31.2235 20.3701L30.6515 23.9812ZM35.508 22.8837C34.9625 22.7973 34.4503 23.1695 34.3639 23.7149L33.7039 27.8818C33.6175 28.4272 33.9897 28.9395 34.5352 29.0259L33.5281 35.3841C32.9827 35.2977 32.4704 35.6699 32.384 36.2154L31.0641 44.549C30.9777 45.0945 31.3499 45.6067 31.8954 45.6931L30.8883 52.0514C30.3428 51.965 29.8306 52.3371 29.7442 52.8826L28.4243 61.2162C28.3379 61.7617 28.71 62.274 29.2555 62.3604L28.2485 68.7186C27.703 68.6322 27.1908 69.0044 27.1044 69.5499L25.7844 77.8835C25.698 78.429 26.0702 78.9412 26.6157 79.0276L25.6087 85.3858C25.0632 85.2994 24.5509 85.6716 24.4645 86.2171L23.8046 90.3839C23.7182 90.9294 24.0903 91.4416 24.6358 91.528L28.8026 92.188C29.3481 92.2744 29.8604 91.9022 29.9468 91.3567L36.305 92.3638C36.2186 92.9093 36.5908 93.4215 37.1363 93.5079L45.4699 94.8278C46.0154 94.9142 46.5276 94.542 46.614 93.9966L52.9722 95.0036C52.8858 95.5491 53.258 96.0613 53.8035 96.1477L62.1371 97.4676C62.6826 97.554 63.1948 97.1819 63.2812 96.6364L69.6395 97.6434C69.5531 98.1889 69.9253 98.7012 70.4707 98.7876L78.8044 100.107C79.3498 100.194 79.8621 99.8217 79.9485 99.2762L86.3067 100.283C86.2203 100.829 86.5925 101.341 87.138 101.427L91.3048 102.087C91.8503 102.174 92.3625 101.802 92.4489 101.256L93.1089 97.0893C93.1953 96.5438 92.8231 96.0316 92.2776 95.9452L93.2847 89.5869C93.8301 89.6733 94.3424 89.3012 94.4288 88.7557L95.7487 80.422C95.8351 79.8766 95.4629 79.3643 94.9174 79.2779L95.9245 72.9197C96.47 73.0061 96.9822 72.6339 97.0686 72.0884L98.3885 63.7548C98.4749 63.2093 98.1028 62.6971 97.5573 62.6107L98.5643 56.2524C99.1098 56.3388 99.6221 55.9667 99.7084 55.4212L101.028 47.0876C101.115 46.5421 100.743 46.0298 100.197 45.9434L101.204 39.5852C101.75 39.6716 102.262 39.2994 102.348 38.7539L103.008 34.5871C103.095 34.0417 102.722 33.5294 102.177 33.443L98.0102 32.7831C97.4647 32.6967 96.9524 33.0688 96.8661 33.6143L90.5078 32.6073C90.5942 32.0618 90.222 31.5495 89.6766 31.4631L81.3429 30.1432C80.7974 30.0568 80.2852 30.429 80.1988 30.9745L73.8406 29.9674C73.927 29.4219 73.5548 28.9097 73.0093 28.8233L64.6757 27.5034C64.1302 27.417 63.618 27.7892 63.5316 28.3346L57.1733 27.3276C57.2597 26.7821 56.8876 26.2699 56.3421 26.1835L48.0084 24.8636C47.463 24.7772 46.9507 25.1493 46.8643 25.6948L40.5061 24.6878C40.5925 24.1423 40.2203 23.63 39.6748 23.5436L35.508 22.8837Z" stroke="white" stroke-width="2" stroke-linecap="round" stroke-linejoin="round" stroke-dasharray="8 8"/>
<path d="M63.142 34.3596C61.3321 34.3761 59.5514 34.5682 57.8194 34.9218C57.9379 35.4528 57.6093 35.9829 57.0783 36.1113C54.7602 36.6716 52.5411 37.5336 50.473 38.6598C49.9932 38.9211 49.3936 38.7486 49.1251 38.2752C47.586 39.1851 46.1352 40.2391 44.7942 41.4218C45.1614 41.8234 45.1402 42.4469 44.7434 42.8226C43.0333 44.4414 41.5277 46.2856 40.2785 48.317C39.9924 48.7824 39.3866 48.9311 38.9182 48.6542C38.0467 50.1922 37.3138 51.8264 36.7388 53.5426C37.2578 53.7061 37.5521 54.256 37.3972 54.7799C37.0657 55.901 36.8032 57.0564 36.6154 58.2422C36.4276 59.428 36.3202 60.608 36.289 61.7767C36.2744 62.3228 35.8246 62.7549 35.2805 62.75C35.297 64.5598 35.4891 66.3405 35.8427 68.0726C36.3737 67.954 36.9038 68.2827 37.0322 68.8137C37.5925 71.1317 38.4545 73.3509 39.5807 75.4189C39.842 75.8988 39.6695 76.4983 39.1961 76.7668C40.106 78.306 41.16 79.7567 42.3427 81.0978C42.7443 80.7305 43.3678 80.7517 43.7435 81.1485C45.3623 82.8586 47.2065 84.3642 49.2379 85.6134C49.7032 85.8996 49.852 86.5053 49.5751 86.9737C51.1131 87.8452 52.7473 88.5782 54.4635 89.1531C54.6269 88.6341 55.1769 88.3399 55.7008 88.4948C56.8219 88.8263 57.9773 89.0888 59.1631 89.2766C60.3489 89.4644 61.5289 89.5718 62.6976 89.603C63.2437 89.6175 63.6758 90.0673 63.6709 90.6114C65.4807 90.595 67.2614 90.4029 68.9935 90.0493C68.8749 89.5182 69.2036 88.9881 69.7346 88.8598C72.0526 88.2995 74.2718 87.4375 76.3398 86.3113C76.8197 86.05 77.4192 86.2225 77.6877 86.6959C79.2269 85.7859 80.6776 84.7319 82.0187 83.5493C81.6514 83.1476 81.6726 82.5241 82.0694 82.1485C83.7795 80.5296 85.2851 78.6855 86.5343 76.654C86.8205 76.1887 87.4262 76.04 87.8946 76.3168C88.7661 74.7788 89.4991 73.1446 90.074 71.4284C89.555 71.265 89.2608 70.715 89.4157 70.1911C89.7472 69.07 90.0097 67.9146 90.1975 66.7288C90.3853 65.543 90.4927 64.363 90.5239 63.1944C90.5384 62.6483 90.9882 62.2161 91.5323 62.2211C91.5159 60.4112 91.3238 58.6305 90.9702 56.8985C90.4391 57.017 89.909 56.6884 89.7807 56.1574C89.2204 53.8393 88.3583 51.6202 87.2322 49.5521C86.9709 49.0723 87.1434 48.4727 87.6168 48.2042C86.7068 46.6651 85.6528 45.2143 84.4701 43.8733C84.0685 44.2405 83.445 44.2193 83.0694 43.8225C81.4505 42.1124 79.6064 40.6068 77.575 39.3576C77.1096 39.0715 76.9609 38.4657 77.2377 37.9973C75.6997 37.1258 74.0655 36.3929 72.3493 35.8179C72.1859 36.3369 71.6359 36.6312 71.112 36.4763C69.9909 36.1448 68.8355 35.8823 67.6497 35.6945C66.4639 35.5067 65.2839 35.3993 64.1153 35.3681C63.5692 35.3535 63.137 34.9037 63.142 34.3596ZM62.4833 38.9963C61.9314 39.0168 61.5006 39.4808 61.5211 40.0327C61.5213 40.0401 61.5217 40.0475 61.5221 40.0549C59.2116 40.2439 56.9813 40.7873 54.8954 41.6384C54.8924 41.6316 54.8894 41.6248 54.8862 41.6181C54.655 41.1165 54.061 40.8973 53.5595 41.1285C50.7569 42.4204 48.2323 44.2547 46.1376 46.5208C45.7627 46.9264 45.7876 47.5591 46.1932 47.934C46.1986 47.939 46.2041 47.944 46.2097 47.9489C44.7557 49.6697 43.5497 51.623 42.6559 53.762C42.649 53.7593 42.6421 53.7567 42.6351 53.7541C42.1165 53.5641 41.5421 53.8305 41.3521 54.349C40.8319 55.7687 40.4412 57.2595 40.1957 58.8093C39.9503 60.3592 39.8612 61.8977 39.9172 63.4086C39.9377 63.9605 40.4016 64.3914 40.9536 64.3709C40.961 64.3706 40.9684 64.3703 40.9758 64.3698C41.1648 66.6803 41.7082 68.9107 42.5593 70.9966C42.5525 70.9995 42.5457 71.0026 42.539 71.0057C42.0374 71.2369 41.8182 71.8309 42.0494 72.3325C43.3413 75.135 45.1756 77.6597 47.4417 79.7543C47.8473 80.1292 48.48 80.1044 48.8549 79.6988C48.8599 79.6933 48.8649 79.6878 48.8698 79.6823C50.5906 81.1363 52.5439 82.3423 54.6829 83.236C54.6802 83.2429 54.6776 83.2499 54.675 83.2569C54.485 83.7754 54.7513 84.3498 55.2699 84.5399C56.6896 85.06 58.1803 85.4507 59.7302 85.6962C61.2801 85.9417 62.8186 86.0308 64.3295 85.9748C64.8814 85.9543 65.3123 85.4903 65.2918 84.9384C65.2915 84.931 65.2912 84.9235 65.2907 84.9161C67.6012 84.7271 69.8316 84.1837 71.9175 83.3327C71.9204 83.3395 71.9235 83.3462 71.9266 83.353C72.1578 83.8546 72.7518 84.0737 73.2534 83.8425C76.0559 82.5506 78.5806 80.7164 80.6752 78.4502C81.0501 78.0446 81.0253 77.412 80.6197 77.0371C80.6142 77.032 80.6087 77.0271 80.6032 77.0222C82.0572 75.3013 83.2632 73.348 84.1569 71.209C84.1638 71.2117 84.1708 71.2144 84.1778 71.2169C84.6963 71.4069 85.2707 71.1406 85.4608 70.622C85.9809 69.2024 86.3716 67.7116 86.6171 66.1617C86.8626 64.6119 86.9517 63.0733 86.8957 61.5624C86.8752 61.0105 86.4112 60.5797 85.8593 60.6002C85.8519 60.6004 85.8444 60.6008 85.837 60.6012C85.648 58.2907 85.1046 56.0604 84.2536 53.9745C84.2604 53.9715 84.2671 53.9685 84.2739 53.9654C84.7754 53.7341 84.9946 53.1401 84.7634 52.6386C83.4715 49.836 81.6373 47.3114 79.3711 45.2167C78.9655 44.8418 78.3329 44.8667 77.958 45.2723C77.9529 45.2777 77.948 45.2832 77.943 45.2888C76.2222 43.8348 74.2689 42.6288 72.1299 41.735C72.1326 41.7281 72.1353 41.7212 72.1378 41.7142C72.3278 41.1956 72.0615 40.6212 71.5429 40.4312C70.1233 39.911 68.6325 39.5203 67.0826 39.2748C65.5328 39.0294 63.9942 38.9403 62.4833 38.9963Z" stroke="white" stroke-width="2" stroke-linecap="round" stroke-linejoin="round" stroke-dasharray="8 8"/>
</g>
<defs>
<filter id="filter0_ii_1017_22" x="0" y="0" width="128" height="129" filterUnits="userSpaceOnUse" color-interpolation-filters="sRGB">
<feFlood flood-opacity="0" result="BackgroundImageFix"/>
<feBlend mode="normal" in="SourceGraphic" in2="BackgroundImageFix" result="shape"/>
<feColorMatrix in="SourceAlpha" type="matrix" values="0 0 0 0 0 0 0 0 0 0 0 0 0 0 0 0 0 0 127 0" result="hardAlpha"/>
<feOffset dy="-4"/>
<feComposite in2="hardAlpha" operator="arithmetic" k2="-1" k3="1"/>
<feColorMatrix type="matrix" values="0 0 0 0 0 0 0 0 0 0 0 0 0 0 0 0 0 0 0.25 0"/>
<feBlend mode="normal" in2="shape" result="effect1_innerShadow_1017_22"/>
<feColorMatrix in="SourceAlpha" type="matrix" values="0 0 0 0 0 0 0 0 0 0 0 0 0 0 0 0 0 0 127 0" result="hardAlpha"/>
<feMorphology radius="1" operator="erode" in="SourceAlpha" result="effect2_innerShadow_1017_22"/>
<feOffset dy="2"/>
<feComposite in2="hardAlpha" operator="arithmetic" k2="-1" k3="1"/>
<feColorMatrix type="matrix" values="0 0 0 0 1 0 0 0 0 1 0 0 0 0 1 0 0 0 0.25 0"/>
<feBlend mode="normal" in2="effect1_innerShadow_1017_22" result="effect2_innerShadow_1017_22"/>
</filter>
<linearGradient id="paint0_linear_1017_22" x1="30.5" y1="-9.37958e-07" x2="96" y2="128" gradientUnits="userSpaceOnUse">
<stop stop-color="#268EF9"/>
<stop offset="1" stop-color="#166EC9"/>
</linearGradient>
<clipPath id="clip0_1017_22">
<rect width="90" height="90" fill="white" transform="translate(26 11) rotate(9)"/>
</clipPath>
</defs>
</svg>
